<svg id="Layer_1" xmlns="http://www.w3.org/2000/svg" viewBox="0 0 305.9 171.9"><style>.st0{fill:#FFFFFF;}</style><path class="st0" d="M60.2 82.3c5.3-4.2 11.9-6.2 19.4-6.2 3.9 0 9.4.8 12.7 1.8.9.2 1.4.4 2 .3.1 1.7.4 6.3 1 10.7-.4.5-1.4.6-1.9.1-1.1-5-4.3-10.7-14.8-10.7-11 0-20.4 7.1-20.4 22.2 0 15.3 9.6 23.8 21.4 23.8 9.3 0 13.4-6.1 15-10.4.5-.4 1.6-.2 1.9.3-.5 3.8-2.4 8.6-3.5 10-.9.1-1.7.4-2.5.7-1.6.6-6.8 1.7-11.4 1.7-6.5 0-12.7-1.3-17.9-4.9-5.8-4-10.2-10.7-10.2-20.1.1-8 3.7-15 9.2-19.3zm72.7 28.2c0 9.3-6.4 15.9-15.6 15.9-8.5 0-15.2-6-15.2-15.3s7-16 15.8-16c8.3.1 15 6.3 15 15.4zM117 97.4c-4.9 0-8.5 4.7-8.5 12.8 0 6.7 3 14 9.6 14s8.5-6.8 8.5-12.5c0-6.3-2.6-14.3-9.6-14.3zm30.2 19.7c0 5.3.1 6.1 2.8 6.4l1.8.2c.5.4.4 1.6-.1 1.9-2.4-.2-4.6-.2-7.2-.2-2.7 0-4.9.1-7.1.2-.5-.2-.7-1.5-.1-1.9l1.7-.2c2.7-.4 2.8-1.1 2.8-6.4V92.3c0-4.4-.1-4.8-2.3-6.1l-.7-.4c-.4-.2-.4-1.3 0-1.5 1.8-.6 5.3-1.7 8-3.1.3 0 .6.1.7.4-.1 2.2-.2 5.9-.2 9.2l-.1 26.3zm20.5 0c0 5.3.1 6.1 2.8 6.4l1.8.2c.5.4.4 1.6-.1 1.9-2.4-.2-4.6-.2-7.2-.2-2.7 0-4.9.1-7.1.2-.5-.2-.7-1.5-.1-1.9l1.7-.2c2.7-.4 2.8-1.1 2.8-6.4V92.3c0-4.4-.1-4.8-2.3-6.1l-.7-.4c-.4-.2-.4-1.3 0-1.5 1.9-.6 5.3-1.7 8-3.1.3 0 .6.1.7.4-.1 2.2-.2 5.9-.2 9.2l-.1 26.3zm16.4-10.6c-1.9 0-2 .2-2 2 0 7.5 4.4 13.8 12.3 13.8 2.4 0 4.5-.7 6.8-3.6.7-.2 1.3.2 1.3.9-2.4 5-7.8 6.9-11.6 6.9-4.8 0-8.6-2.1-10.7-4.9-2.2-2.9-3.1-6.4-3.1-9.6 0-9.1 6-16.7 14.9-16.7 6.4 0 10.5 4.4 10.5 8.8 0 1-.1 1.6-.3 1.9-.2.4-1.3.5-4.4.5h-13.7zm4.6-2.2c5.5 0 7.1-.3 7.7-.7.2-.1.4-.4.4-1.4 0-2.1-1.4-4.7-5.7-4.7-4.4 0-8.1 4-8.2 6.4 0 .2 0 .4.5.4h5.3zM239 92.2c.8.4.7 2.9-.4 3h-5.3c.1 1.3.1 2.5.1 3.8 0 5.1-3 11.8-12.4 11.8-1.3 0-2.4-.1-3.3-.2-.9.5-3.3 1.9-3.3 4.1 0 1.7 1.7 3.1 5.2 3.1 2.5 0 5.6-.2 8.8-.2 4.1 0 10.4.7 10.4 8.1 0 8.1-8.8 14-18.4 14-9.1 0-12.3-4.9-12.3-8.6 0-1.2.3-2.1.8-2.7l5-5c.7-.7 1.3-1.3.6-1.8-2.9-.7-5.4-3.3-5.4-5.8 0-.4.3-.7 1.1-1.3 1.3-.8 2.7-2.1 3.9-3.4.4-.4.7-1 .7-1.4-2.5-1.3-5.6-4.2-5.6-9 0-6.4 5.5-11.2 12.1-11.2 2.8 0 5.4.7 7.1 1.5 2.4 1 2.9 1.2 4.5 1.2h6.1zm-15.5 29.9c-2.4 0-5.3.1-6.4.8-1.8 1.1-3.6 3.4-3.6 6.2 0 4 3.2 7.3 9.9 7.3 6.6 0 11-3.7 11-7.9 0-4.5-3.1-6.4-8.4-6.4h-2.5zm4.6-21.2c0-5-2.1-9.3-6.6-9.3-3.6 0-6.2 3.3-6.2 8.3 0 5.3 3.2 8.7 6.7 8.7 4 0 6.1-3.2 6.1-7.7zm20.3 5.6c-1.9 0-2 .2-2 2 0 7.5 4.4 13.8 12.3 13.8 2.4 0 4.5-.7 6.8-3.6.7-.2 1.3.2 1.3.9-2.4 5-7.8 6.9-11.6 6.9-4.8 0-8.6-2.1-10.7-4.9-2.2-2.9-3.1-6.4-3.1-9.6 0-9.1 6-16.7 14.9-16.7 6.4 0 10.5 4.4 10.5 8.8 0 1-.1 1.6-.3 1.9-.2.4-1.3.5-4.4.5h-13.7zm4.6-2.2c5.5 0 7.1-.3 7.7-.7.2-.1.4-.4.4-1.4 0-2.1-1.4-4.7-5.7-4.7-4.4 0-8.1 4-8.2 6.4 0 .2 0 .4.5.4h5.3zM40.6 79.3c-8.9 0-16.2-2.1-22.2-6.4-8.2-6-12.7-15.3-12.7-26.3 0-10.1 4.1-19.4 11.3-25.3 6.3-5.3 14.7-8.1 24-8.1 4.6 0 11.3 1 15.7 2.3l.2.1c.7.2 1.2.3 1.7.3h.4l.5-.1v.5c.1 2.3.5 8.2 1.2 13.8v.1l-.1.2c-.3.5-.9.7-1.6.7-.5 0-1-.2-1.4-.5-2-9.1-7.9-13.7-17.8-13.7-11.8 0-24.5 7.4-24.5 28.2 0 18.1 10.3 30.3 25.7 30.3 11.5 0 16.2-8.3 18-13.2.4-.4.8-.5 1.3-.5.6 0 1.4.3 1.8.9-.6 5.4-3 11.6-4.3 13.4l-.1.1h-.2c-1.1.2-2.2.6-3 .9-1.8.9-8.3 2.3-13.9 2.3zM83 71.7c-5.7 0-10.7-2.3-13.8-6.3-3.3-4.3-4-9.1-4-12.3 0-12.2 8.2-21.4 19.1-21.4 8.5 0 13.5 5.8 13.5 11.4 0 1.4-.2 2.2-.4 2.5-.3.7-1.5.8-5.7.8H74.4c-2.3 0-2.3.1-2.3 2.3 0 8.6 4.7 17.3 15.3 17.3 3.5 0 5.9-1.3 8.4-4.5.3-.1.5-.2.7-.2.8 0 1.3.6 1.4 1.4-3.1 6.6-10 9-14.9 9zm.3-36.8c-5.4 0-10.1 4.9-10.2 7.9 0 .1 0 .2.4.2h6.7c6 0 8.8-.3 9.6-.9.2-.2.5-.5.5-1.6 0-2.5-1.9-5.6-7-5.6zm26.2 10.3c0-4.3 0-4.9-3-6.9l-1-.7c-.4-.4-.4-1.7.1-2 2.6-.9 8.9-3.8 11.1-5.4.4 0 1 .2 1.2.8-.2 2.6-.2 4.2-.2 5.2 0 .7.4 1.2 1.2 1.2 4.7-2.9 9.9-5.7 15.5-5.7 9.2 0 13 6.3 13 13.8v19.1c0 8 .2 9.1 4.2 9.7l2.4.3c.8.6.6 2.4-.2 2.8-3.3-.2-6.5-.3-10.4-.3-4 0-7.3.1-10.3.3-.8-.3-1-2.2-.2-2.8l2.1-.3c4.1-.7 4.2-1.7 4.2-9.7V48.1c0-6.3-2.9-11-10.4-11-4.2 0-7.9 1.8-9.4 3.9-1.4 1.9-1.7 3.4-1.7 6.7v17c0 8 .2 9 4.2 9.7l2 .3c.8.6.6 2.4-.2 2.8-3-.2-6.2-.3-10.1-.3-4 0-7.3.1-10.4.3-.8-.3-1-2.2-.2-2.8l2.3-.3c4.1-.6 4.2-1.7 4.2-9.7V45.2zm65.2-7.2c-1.9 0-2 .3-2 2.7v20.8c0 6.4.8 12.3 8.1 12.3 1.1 0 2.1-.2 3-.6 1-.3 2.4-1.6 2.8-1.6.9 0 1.3 1.2 1.1 1.9-2 2.3-6 5.1-11.7 5.1-9.6 0-11.6-5.3-11.6-12V41.2c0-3-.1-3.2-2.3-3.2H159c-.7-.4-.8-1.7-.3-2.3 3.2-1 6-2.4 7.1-3.4 1.4-1.3 3.6-4.3 4.7-6.6.6-.2 1.9-.2 2.3.6v5c0 2 .1 2.1 2 2.1h12.3c1.3 1 1.1 4 .1 4.7l-12.5-.1zm26 7.2c0-4.3 0-4.9-3-6.9l-1-.7c-.4-.4-.4-1.7.1-2 2.6-.9 8.4-3.8 11.2-5.4.6.1.9.3.9.8v6.4c0 .6.1.9.3 1 3.9-3.2 8.1-6.7 12.2-6.7 2.8 0 5 1.8 5 4.4 0 3.7-3 5.1-4.8 5.1-1.1 0-1.7-.3-2.4-.8-1.7-1.1-3.3-1.8-4.9-1.8-1.8 0-3.1 1-4 2.2-1.1 1.6-1.4 4.8-1.4 8.5v15.1c0 8 .2 9.3 4.4 9.7l4 .3c.8.6.6 2.4-.2 2.8-5.2-.2-8.4-.3-12.3-.3-4 0-7.3.1-10.2.3-.8-.3-1-2.2-.2-2.8l2.1-.3c4.1-.7 4.2-1.7 4.2-9.7V45.2zm52.8 8.9c1.7-.6 1.9-1.6 1.9-3.2l.1-5.1c.1-4.1-1.2-9.7-8.1-9.7-3.1 0-6.9 1.6-7.1 5-.1 1.8-.2 3.1-1.1 3.8-1.7 1.3-4.7 2.1-6.3 2.1-1 0-1.6-.6-1.6-1.6 0-5.8 12.6-13.7 20.7-13.7 8 0 11.9 4.7 11.5 13l-.7 19.3c-.2 5.1.8 9.7 5.1 9.7 1.1 0 2.1-.3 2.8-.7.6-.3 1.1-.8 1.4-.8.4 0 .8.7.8 1.4 0 .6-3.9 4.9-9.3 4.9-2.7 0-5.3-1-7.2-3.4-.4-.7-1.1-1.6-1.8-1.6-.8 0-2.1 1-4.3 2.2-2.4 1.3-4.9 2.8-8 2.8-3.2 0-5.9-.9-7.8-2.6-2.1-1.9-3.4-4.7-3.4-7.8 0-4.3 2.1-6.9 9.2-9.4l13.2-4.6zm-6.9 19.5c2.2 0 5.7-1.7 6.8-2.8 1.3-1.3 1.3-2.9 1.4-5.2l.2-6.6c0-1.2-.4-1.4-1.1-1.4s-2.6.4-4.6 1.1c-6.6 2.2-9.8 3.9-9.8 8.2.1 1.9 1.5 6.7 7.1 6.7zm45.1-9c0 8 .2 9.1 4.2 9.7l2.7.3c.8.6.6 2.4-.2 2.8-3.7-.2-6.9-.3-10.8-.3-4 0-7.3.1-10.7.3-.8-.3-1-2.2-.2-2.8l2.6-.3c4.1-.6 4.2-1.7 4.2-9.7V25.9c0-6.6-.1-7.2-3.4-9.2L279 16c-.6-.3-.6-1.9 0-2.2 2.8-.9 8-2.6 12-4.7.4 0 .9.2 1.1.7-.1 3.3-.3 8.9-.3 13.8v41h-.1zM126.8 158.9c0 3 .1 3 2 3.3l.8.1c.2.2.2.8-.1.9-1.5-.1-2.9-.1-4.3-.1-1.6 0-3 0-4.5.1-.3-.1-.3-.7-.1-.9l.8-.1c1.9-.3 2-.3 2-3.3V149c0-2.1-.1-2.8-1.5-3l-1.5-.2c-.2-.2-.2-.6 0-.7 2.6-.5 4.8-1.2 6-2 .2 0 .3.1.3.3-.1.7-.1 2.5-.1 3.8l.2 11.7zm26.1-11c0 2.4-2.1 3.5-3.5 4.5 1.9 1.1 4.1 2.8 4.1 5.8 0 3.6-3.2 5.4-6.6 5.4-3.1 0-6.3-1.4-6.3-5 0-2.4 1.9-3.8 4.1-5.1-1.7-.8-3.6-2.6-3.6-4.9 0-3.2 2.6-5.4 6.2-5.4 3.1-.1 5.6 1.6 5.6 4.7zm-2.7 11.3c0-2.4-1.7-4-4.4-5.2-1.5 1.2-2.2 2.5-2.2 4.4 0 2.3 1.5 3.9 3.5 3.9 1.7 0 3.1-1.2 3.1-3.1zm-5.9-11.6c0 2.1 2.3 3.2 4.1 4.1 1.2-.9 1.8-2.1 1.8-3.8 0-1.7-1.1-3.5-3-3.5s-2.9 1.5-2.9 3.2zm30.3-4.9c.2 0 .3.2.3.3-.2.8-.6 1.8-1.2 2.6l-6.5.8c-.9.1-.9.2-1.1.9l-.3 1.1c-.1.3 0 .5.6.6l2.2.4c2.5.4 7 1.7 7 6.6 0 5.6-6.7 9-11.7 9.2-.4-.2-.5-.8-.2-1.1 4.4-.5 8.9-2.7 8.9-7 0-4.4-4.5-5.4-8-5.5-.7 0-.7-.2-.5-1l1.7-6.1c.1-.5.3-.8.8-.8l8-1zm22.7 4c0 1.3-.5 2.6-3.3 4-.2.2-.1.4.4.5 2.4.2 4.5 1.8 4.5 4.9 0 5-5.4 8.9-10.1 8.9-1.5 0-3.1-.7-3.1-2 0-.8.6-1.5 1.5-1.5s1.5.8 1.7 1.2c.6.7 1 1 1.7 1 1.5 0 4.6-2.2 4.6-6 0-2.6-1.3-4.7-4-4.7-1.2 0-2.3.6-3 1.3-.5-.1-.9-.7-.7-1.3 2-.9 6.2-2.1 6.2-5.3 0-1.7-1.1-2.6-2.4-2.6-1.5 0-2.8 1-3.8 2.6-.3.2-.6-.1-.7-.5 1-2.3 3.3-3.8 5.9-3.8 2.8-.2 4.6 1.3 4.6 3.3zM68 156c-.2 0-.3-.1-.3-.4v-5.2c0-.3.2-.4.3-.4.1 0 .2.1.3.1l1.7 1.7c.1.1.3.2.5.2h39c.3 0 .6.3.6.6v.8c0 .3-.3.6-.6.6h-39c-.1 0-.4.1-.5.2l-1.7 1.7c-.1.1-.2.1-.3.1zm183.9 0c-.1 0-.2-.1-.3-.1l-1.7-1.7c-.1-.1-.3-.2-.5-.2h-39c-.3 0-.6-.3-.6-.6v-.8c0-.3.3-.6.6-.6h39c.1 0 .4-.1.5-.2l1.7-1.7c.1-.1.2-.1.3-.1.2 0 .3.1.3.4v5.2c0 .3-.2.4-.3.4z"/></svg>